 <svg  version="1.0" xmlns="http://www.w3.org/2000/svg"  width="179.000000pt" height="180.000000pt" viewBox="0 0 179.000000 180.000000"  preserveAspectRatio="xMidYMid meet">  <g transform="translate(0.000000,180.000000) scale(0.100000,-0.100000)" fill="#dfdba7" stroke="none"> <path d="M30 1581 c0 -39 35 -248 54 -324 50 -196 123 -297 308 -428 53 -38 112 -88 130 -110 75 -93 93 -111 128 -129 42 -21 110 -93 110 -115 0 -27 -38 -55 -75 -55 -59 0 -107 27 -177 101 -56 60 -76 75 -132 94 l-65 23 14 -27 c25 -48 142 -186 197 -232 29 -25 89 -72 133 -104 44 -33 105 -83 135 -111 95 -90 139 -91 220 -8 25 26 97 86 160 134 125 94 220 189 289 290 32 46 39 61 25 56 -10 -5 -42 -16 -71 -25 -42 -14 -64 -30 -115 -85 -65 -71 -121 -105 -173 -106 -39 0 -75 25 -75 52 0 33 47 86 105 119 37 21 68 50 102 97 36 50 72 83 139 128 126 87 227 192 269 279 48 98 104 343 105 452 l0 31 -62 -64 c-98 -103 -262 -199 -490 -290 l-98 -38 0 -36 c0 -89 -50 -207 -115 -270 -83 -81 -174 -62 -249 53 -33 48 -54 111 -73 215 l-8 43 -95 38 c-257 102 -426 206 -511 314 -21 27 -39 44 -39 38z"/> </g> </svg> 