<?xml version="1.0" standalone="no"?>
<!DOCTYPE svg PUBLIC "-//W3C//DTD SVG 20010904//EN"
 "http://www.w3.org/TR/2001/REC-SVG-20010904/DTD/svg10.dtd">
<svg version="1.0" xmlns="http://www.w3.org/2000/svg"
 width="155.000000pt" height="179.000000pt" viewBox="0 0 155.000000 179.000000"
 preserveAspectRatio="xMidYMid meet">
<metadata>
Created by potrace 1.10, written by Peter Selinger 2001-2011
</metadata>
<g transform="translate(0.000000,179.000000) scale(0.100000,-0.100000)"
fill="#dfdba7" stroke="none">
<path d="M676 1608 c-8 -13 -49 -101 -91 -196 l-76 -173 131 -222 132 -222 -5
-75 c-3 -56 -12 -92 -36 -144 l-31 -68 27 -49 c14 -27 29 -49 33 -49 19 0 48
57 155 304 99 227 116 276 116 320 0 48 -9 67 -158 320 -87 148 -163 271 -170
273 -6 2 -18 -6 -27 -19z"/>
<path d="M1042 1613 c-5 -10 -33 -71 -61 -136 l-51 -119 64 -106 c35 -59 71
-121 80 -139 18 -37 21 -110 5 -166 -9 -35 -7 -42 22 -90 25 -40 34 -66 37
-113 4 -53 -1 -71 -34 -148 l-37 -88 24 -45 c29 -54 37 -60 55 -41 8 8 67 133
130 279 94 214 117 275 120 324 l5 60 -158 270 c-91 154 -166 271 -175 273 -9
2 -21 -5 -26 -15z"/>
<path d="M361 1316 c-6 -7 -63 -132 -127 -277 -157 -359 -160 -303 41 -649 86
-149 163 -270 170 -270 20 0 27 13 143 275 114 256 137 325 126 373 -9 38
-317 562 -330 562 -6 0 -17 -6 -23 -14z"/>
<path d="M1031 832 c-5 -9 -48 -107 -96 -217 -48 -110 -97 -210 -109 -223 -33
-34 -91 -22 -118 24 -11 19 -23 34 -27 34 -9 0 -31 -46 -31 -64 0 -20 142
-257 158 -263 7 -3 18 -1 23 4 17 17 229 505 244 559 14 53 9 99 -14 142 -14
27 -18 27 -30 4z"/>
<path d="M1310 633 c-52 -119 -104 -228 -116 -242 -19 -23 -25 -24 -60 -16
-27 7 -45 20 -59 42 -11 18 -23 32 -26 33 -10 0 -31 -57 -27 -72 1 -8 35 -69
73 -136 55 -96 74 -122 89 -120 15 2 47 64 138 273 131 298 144 346 113 415
-10 22 -21 40 -25 40 -3 0 -49 -98 -100 -217z"/>
</g>
</svg>
