<?xml version="1.0" standalone="no"?>
<!DOCTYPE svg PUBLIC "-//W3C//DTD SVG 20010904//EN"
 "http://www.w3.org/TR/2001/REC-SVG-20010904/DTD/svg10.dtd">
<svg version="1.0" xmlns="http://www.w3.org/2000/svg"
 width="155.000000pt" height="179.000000pt" viewBox="0 0 155.000000 179.000000"
 preserveAspectRatio="xMidYMid meet">
<metadata>
Created by potrace 1.10, written by Peter Selinger 2001-2011
</metadata>
<g transform="translate(0.000000,179.000000) scale(0.100000,-0.100000)"
fill="#dfdba7" stroke="none">
<path d="M760 1618 c-25 -159 -30 -175 -66 -188 -37 -15 -68 3 -121 69 -26 34
-49 55 -51 48 -1 -7 1 -47 7 -88 8 -66 7 -76 -9 -93 -18 -19 -22 -17 -172 66
-84 47 -155 84 -157 82 -2 -1 33 -69 78 -150 45 -81 81 -153 81 -160 0 -29
-26 -35 -116 -24 -48 5 -89 8 -91 7 -1 -2 29 -29 67 -60 54 -44 70 -63 70 -83
0 -60 -27 -75 -172 -95 -151 -21 -147 -35 19 -60 132 -20 157 -36 151 -93 -2
-24 -17 -42 -71 -85 -37 -29 -66 -55 -65 -57 2 -1 43 2 91 7 90 10 117 4 117
-26 0 -6 -37 -78 -81 -159 -45 -81 -80 -148 -78 -150 2 -2 36 14 74 36 39 22
107 60 153 85 80 44 84 45 103 27 10 -9 17 -24 15 -33 -3 -9 -7 -50 -11 -91
l-6 -75 27 35 c53 66 102 110 123 110 12 0 32 -10 45 -23 18 -18 26 -48 45
-170 13 -81 25 -146 27 -144 2 1 13 66 25 142 22 148 35 181 73 191 35 8 58
-8 113 -77 55 -70 59 -66 44 43 -9 66 -8 75 9 92 18 18 20 18 102 -27 45 -24
115 -63 153 -85 39 -22 72 -38 74 -36 2 2 -33 69 -78 150 -44 81 -81 153 -81
159 0 30 27 36 117 26 48 -5 89 -8 90 -7 1 1 -29 28 -67 59 -61 50 -70 61 -70
90 0 53 24 67 149 85 89 13 111 19 111 32 0 13 -23 20 -112 34 -125 19 -148
31 -148 83 0 29 9 40 70 90 38 31 68 58 67 60 -2 1 -43 -2 -91 -7 -90 -11
-116 -5 -116 24 0 7 36 79 81 160 45 81 80 149 78 150 -2 2 -73 -35 -157 -82
-151 -84 -154 -85 -172 -66 -17 17 -18 26 -9 92 15 109 11 113 -46 42 -55 -68
-82 -84 -119 -70 -36 13 -41 29 -66 188 -12 78 -24 142 -25 142 -1 0 -13 -64
-25 -142z m195 -333 c74 -35 163 -123 194 -190 94 -201 11 -440 -187 -537 -63
-31 -73 -33 -177 -33 -105 0 -114 2 -177 33 -83 41 -168 130 -200 211 -32 80
-32 223 1 303 39 101 147 199 256 235 25 8 76 12 135 10 82 -2 104 -7 155 -32z"/>
<path d="M704 1249 c-63 -15 -145 -69 -186 -124 -51 -67 -72 -139 -66 -230 8
-126 72 -221 186 -277 59 -29 76 -33 147 -33 132 1 233 61 296 177 32 59 34
69 34 158 -1 107 -18 154 -81 228 -70 82 -219 128 -330 101z"/>
</g>
</svg>
