<?xml version="1.0" standalone="no"?>
<!DOCTYPE svg PUBLIC "-//W3C//DTD SVG 20010904//EN"
 "http://www.w3.org/TR/2001/REC-SVG-20010904/DTD/svg10.dtd">
<svg version="1.0" xmlns="http://www.w3.org/2000/svg"
 width="179.000000pt" height="180.000000pt" viewBox="0 0 179.000000 180.000000"
 preserveAspectRatio="xMidYMid meet">
<metadata>
Created by potrace 1.10, written by Peter Selinger 2001-2011
</metadata>
<g transform="translate(0.000000,180.000000) scale(0.100000,-0.100000)"
fill="#dfdba7" stroke="none">
<path d="M764 1535 c-61 -143 -137 -324 -170 -402 -32 -78 -62 -143 -65 -143
-4 0 -35 45 -70 100 -34 55 -66 97 -69 93 -9 -10 -310 -659 -310 -667 0 -4 18
5 39 19 22 13 77 37 122 52 77 26 83 31 97 66 14 36 17 37 29 21 10 -13 13
-14 13 -3 1 8 7 28 14 44 l13 30 18 -55 17 -56 132 -2 c82 -1 181 -10 264 -25
72 -12 132 -21 132 -19 0 2 -28 16 -63 33 -54 25 -193 64 -301 85 l-29 5 32
20 c54 32 172 68 256 76 l79 8 9 35 10 35 9 -36 c9 -36 10 -36 73 -42 35 -3
90 -14 122 -23 l58 -18 -90 -17 c-85 -16 -173 -45 -164 -53 2 -2 36 2 74 10
107 21 335 18 452 -6 54 -10 108 -22 121 -26 19 -5 6 26 -94 232 -64 132 -147
304 -185 383 -38 79 -71 142 -73 140 -3 -2 -25 -56 -51 -119 -26 -63 -50 -119
-55 -123 -4 -4 -53 95 -110 220 -57 125 -119 264 -140 308 l-36 80 -110 -260z"/>
<path d="M1120 583 c-14 -2 -74 -16 -135 -29 -82 -19 -160 -28 -304 -34 -107
-5 -233 -17 -279 -25 -176 -33 -308 -90 -288 -124 11 -16 41 -28 171 -62 149
-39 329 -59 582 -66 l211 -6 10 39 c6 22 20 86 32 144 13 58 24 106 25 108 2
2 13 -40 26 -92 13 -53 25 -96 29 -96 3 0 12 23 20 52 l15 52 33 -88 c33 -86
35 -88 62 -82 58 11 100 34 100 55 0 11 -9 22 -20 26 -11 3 -20 13 -20 20 0
17 51 32 149 44 77 10 154 45 159 74 5 26 -91 66 -201 83 -85 13 -319 17 -377
7z"/>
</g>
</svg>
